<svg xmlns="http://www.w3.org/2000/svg" xmlns:xlink="http://www.w3.org/1999/xlink" width="500" zoomAndPan="magnify" viewBox="0 0 375 374.999991" height="500" preserveAspectRatio="xMidYMid meet" version="1.0"><defs><g/></defs><g fill="#000000" fill-opacity="1"><g transform="translate(92.137498, 206.999986)"><g><path d="M 21.25 -20.1875 C 21.445312 -22.125 21.65625 -24.148438 21.875 -26.265625 C 22.25 -30.316406 22.875 -36.898438 23.75 -46.015625 C 26.675781 -46.085938 31.3125 -46.5625 37.65625 -47.4375 C 34.15625 -26.40625 31.753906 -9.265625 30.453125 3.984375 C 26.035156 5.785156 22.082031 7.019531 18.59375 7.6875 C 18.757812 5.050781 19.320312 -1.082031 20.28125 -10.71875 C 18.53125 -10.28125 16.957031 -9.878906 15.5625 -9.515625 C 15.320312 -4.515625 14.984375 0.789062 14.546875 6.40625 C 11.992188 6.945312 9.785156 7.410156 7.921875 7.796875 C 5.316406 8.210938 3.316406 8.53125 1.921875 8.75 C 3.078125 -12.507812 3.445312 -29.953125 3.03125 -43.578125 C 5.351562 -43.703125 10.046875 -44.445312 17.109375 -45.8125 C 16.648438 -38.3125 16.269531 -30.390625 15.96875 -22.046875 C 15.957031 -20.953125 15.941406 -19.84375 15.921875 -18.71875 C 17.609375 -19.1875 19.382812 -19.675781 21.25 -20.1875 Z M 21.25 -20.1875 "/></g></g></g><g fill="#000000" fill-opacity="1"><g transform="translate(126.877731, 206.999986)"><g><path d="M 17.03125 -45.203125 C 13.207031 -44.960938 11.085938 -44.644531 10.671875 -44.25 C 9.015625 -35.269531 6.753906 -24.375 3.890625 -11.5625 C 1.785156 -2.050781 0.742188 3.0625 0.765625 3.78125 C 7.171875 5.757812 11.21875 6.726562 12.90625 6.6875 C 13.625 2.007812 14.222656 -1.566406 14.703125 -4.046875 C 19.597656 -2.992188 23.097656 -2.382812 25.203125 -2.21875 C 27.140625 3.851562 28.335938 7.300781 28.796875 8.125 C 29.578125 8.132812 31.601562 7.4375 34.875 6.03125 C 38.144531 4.632812 39.78125 3.738281 39.78125 3.34375 C 35.738281 -8.875 31.519531 -22.984375 27.125 -38.984375 C 25.882812 -42.929688 25.066406 -45.175781 24.671875 -45.71875 C 23.410156 -45.613281 20.863281 -45.441406 17.03125 -45.203125 Z M 18.390625 -28.265625 C 19.046875 -26.785156 19.5625 -25.160156 19.9375 -23.390625 C 20.320312 -21.628906 21.003906 -18.40625 21.984375 -13.71875 C 20.710938 -13.625 18.800781 -13.796875 16.25 -14.234375 C 16.90625 -18.003906 17.617188 -22.679688 18.390625 -28.265625 Z M 18.390625 -28.265625 "/></g></g><g transform="translate(167.298627, 206.999986)"><g><path d="M 16.03125 -42.578125 C 14.050781 -25.421875 12.363281 -12.359375 10.96875 -3.390625 C 14.8125 -3.828125 18.675781 -4.234375 22.5625 -4.609375 C 22.789062 1.742188 22.90625 5.929688 22.90625 7.953125 C 16.300781 8.234375 8.460938 8.082031 -0.609375 7.5 C -0.566406 1.976562 -0.238281 -3.726562 0.375 -9.625 C 0.925781 -15.550781 1.375 -20.546875 1.71875 -24.609375 C 2.3125 -30.722656 2.816406 -37.191406 3.234375 -44.015625 C 7.816406 -43.628906 12.082031 -43.148438 16.03125 -42.578125 Z M 16.03125 -42.578125 "/></g></g><g transform="translate(192.318156, 206.999986)"><g><path d="M 16.03125 -42.578125 C 14.050781 -25.421875 12.363281 -12.359375 10.96875 -3.390625 C 14.8125 -3.828125 18.675781 -4.234375 22.5625 -4.609375 C 22.789062 1.742188 22.90625 5.929688 22.90625 7.953125 C 16.300781 8.234375 8.460938 8.082031 -0.609375 7.5 C -0.566406 1.976562 -0.238281 -3.726562 0.375 -9.625 C 0.925781 -15.550781 1.375 -20.546875 1.71875 -24.609375 C 2.3125 -30.722656 2.816406 -37.191406 3.234375 -44.015625 C 7.816406 -43.628906 12.082031 -43.148438 16.03125 -42.578125 Z M 16.03125 -42.578125 "/></g></g><g transform="translate(217.337686, 206.999986)"><g><path d="M 16.03125 -42.578125 C 14.050781 -25.421875 12.363281 -12.359375 10.96875 -3.390625 C 14.8125 -3.828125 18.675781 -4.234375 22.5625 -4.609375 C 22.789062 1.742188 22.90625 5.929688 22.90625 7.953125 C 16.300781 8.234375 8.460938 8.082031 -0.609375 7.5 C -0.566406 1.976562 -0.238281 -3.726562 0.375 -9.625 C 0.925781 -15.550781 1.375 -20.546875 1.71875 -24.609375 C 2.3125 -30.722656 2.816406 -37.191406 3.234375 -44.015625 C 7.816406 -43.628906 12.082031 -43.148438 16.03125 -42.578125 Z M 16.03125 -42.578125 "/></g></g><g transform="translate(242.357216, 206.999986)"><g><path d="M 32.609375 -36.921875 C 35.023438 -33.035156 36.707031 -28.554688 37.65625 -23.484375 C 38.132812 -20.390625 38.273438 -17.332031 38.078125 -14.3125 C 35.492188 4.101562 27.09375 12.203125 12.875 9.984375 C 8.832031 8.804688 5.71875 5.84375 3.53125 1.09375 C 2.0625 -2.46875 1.269531 -6.285156 1.15625 -10.359375 C 1.039062 -14.742188 1.617188 -19.191406 2.890625 -23.703125 C 4.078125 -27.359375 5.21875 -30.132812 6.3125 -32.03125 C 6.59375 -32.769531 7.546875 -34.164062 9.171875 -36.21875 C 17.984375 -45.84375 25.796875 -46.078125 32.609375 -36.921875 Z M 11.796875 -10.625 C 12.515625 -5.726562 14.53125 -3.15625 17.84375 -2.90625 C 20.75 -2.46875 23.160156 -3.84375 25.078125 -7.03125 C 27.210938 -11.101562 27.863281 -15.257812 27.03125 -19.5 C 25.851562 -24.90625 23.847656 -27.617188 21.015625 -27.640625 C 17.410156 -27.328125 14.65625 -24.375 12.75 -18.78125 C 11.863281 -15.914062 11.546875 -13.195312 11.796875 -10.625 Z M 11.796875 -10.625 "/></g></g></g></svg>