<svg xmlns="http://www.w3.org/2000/svg" xmlns:xlink="http://www.w3.org/1999/xlink" width="5000" zoomAndPan="magnify" viewBox="0 0 3750 749.999995" height="1000" preserveAspectRatio="xMidYMid meet" version="1.0"><defs><g/><clipPath id="3d04e1ddb1"><rect x="0" width="3260" y="0" height="738"/></clipPath></defs><g transform="matrix(1, 0, 0, 1, 268, 6)"><g clip-path="url(#3d04e1ddb1)"><g fill="#000000" fill-opacity="1"><g transform="translate(1.589265, 611.350875)"><g><path d="M 595.765625 -408.96875 L 595.765625 0 L 499.3125 0 L 499.3125 -312.53125 L 361.359375 -311.921875 L 361.359375 0 L 264.921875 0 L 264.921875 -311.921875 L 126.96875 -312.53125 L 126.96875 0 L 30.515625 0 L 30.515625 -408.96875 Z M 595.765625 -408.96875 "/></g></g></g><g fill="#000000" fill-opacity="1"><g transform="translate(674.751649, 611.350875)"><g><path d="M 439.5 -408.96875 L 439.5 0 L 343.046875 0 L 343.046875 -78.140625 L 126.96875 -78.140625 L 126.96875 0 L 30.515625 0 L 30.515625 -408.96875 Z M 126.96875 -174.578125 L 343.046875 -174.578125 L 343.046875 -312.53125 L 126.96875 -312.53125 Z M 126.96875 -174.578125 "/></g></g></g><g fill="#000000" fill-opacity="1"><g transform="translate(1191.648724, 611.350875)"><g><path d="M 30.515625 -96.4375 L 343.046875 -96.4375 L 343.046875 -156.265625 L 30.515625 -156.265625 L 30.515625 -408.96875 L 439.5 -408.96875 L 439.5 -312.53125 L 126.96875 -312.53125 L 126.96875 -252.703125 L 439.5 -252.703125 L 439.5 0 L 30.515625 0 Z M 30.515625 -96.4375 "/></g></g></g><g fill="#000000" fill-opacity="1"><g transform="translate(1708.5458, 611.350875)"><g><path d="M 126.96875 -96.4375 L 343.046875 -96.4375 L 343.046875 -312.53125 L 30.515625 -312.53125 L 30.515625 -408.96875 L 439.5 -408.96875 L 439.5 0 L 30.515625 0 L 30.515625 -252.703125 L 126.96875 -252.703125 Z M 126.96875 -96.4375 "/></g></g></g><g fill="#000000" fill-opacity="1"><g transform="translate(2225.442876, 611.350875)"><g><path d="M 439.5 -408.96875 L 439.5 0 L 343.046875 0 L 343.046875 -78.140625 L 126.96875 -78.140625 L 126.96875 0 L 30.515625 0 L 30.515625 -408.96875 Z M 126.96875 -174.578125 L 343.046875 -174.578125 L 343.046875 -312.53125 L 126.96875 -312.53125 Z M 126.96875 -174.578125 "/></g></g></g><g fill="#000000" fill-opacity="1"><g transform="translate(2742.339951, 611.350875)"><g><path d="M 343.046875 -408.96875 L 439.5 -408.96875 L 439.5 3.046875 L 435.21875 0 L 343.046875 0 L 343.046875 -66.53125 L 126.96875 -219.75 L 126.96875 0 L 30.515625 0 L 30.515625 -408.96875 L 126.96875 -408.96875 L 126.96875 -341.828125 L 343.046875 -188.625 Z M 343.046875 -408.96875 "/></g></g></g></g></g></svg>