<svg xmlns="http://www.w3.org/2000/svg" xmlns:xlink="http://www.w3.org/1999/xlink" width="1000" zoomAndPan="magnify" viewBox="0 0 750 225" height="300" preserveAspectRatio="xMidYMid meet" version="1.0"><defs><g/></defs><g fill="#000000" fill-opacity="1"><g transform="translate(239.031112, 132.000005)"><g><path d="M 38.734375 -48.625 C 25.898438 -46.757812 13.207031 -44.785156 0.65625 -42.703125 C 0.582031 -40.929688 0.398438 -35.929688 0.109375 -27.703125 C 5.359375 -28.128906 9.828125 -28.554688 13.515625 -28.984375 L 13.640625 -28.984375 C 12.054688 -9.347656 11.035156 3.957031 10.578125 10.9375 C 16.429688 9.945312 21.867188 9.144531 26.890625 8.53125 C 26.117188 -1.75 25.289062 -14.648438 24.40625 -30.171875 C 29.007812 -30.691406 33.582031 -31.066406 38.125 -31.296875 C 38.53125 -40.921875 38.734375 -46.695312 38.734375 -48.625 Z M 38.734375 -48.625 "/></g></g><g transform="translate(278.365095, 132.000005)"><g><path d="M 26.234375 -43.578125 C 23.441406 -43.234375 19.113281 -42.972656 13.25 -42.796875 C 7.988281 -42.617188 4.722656 -42.578125 3.453125 -42.671875 C 2.421875 -21.117188 1.769531 -7.691406 1.5 -2.390625 C 1.238281 2.910156 1.179688 5.5625 1.328125 5.5625 C 8.316406 5.707031 18.789062 5.75 32.75 5.6875 C 33.082031 4.863281 33.160156 1 32.984375 -5.90625 C 25.765625 -5.019531 19.78125 -4.46875 15.03125 -4.25 C 14.8125 -6.851562 14.726562 -10.066406 14.78125 -13.890625 C 16.90625 -14.148438 20.179688 -14.25 24.609375 -14.1875 C 24.609375 -16.769531 24.722656 -18.878906 24.953125 -20.515625 C 25.242188 -23.328125 25.242188 -24.882812 24.953125 -25.1875 C 21.191406 -24.488281 17.769531 -24.144531 14.6875 -24.15625 C 14.695312 -24.925781 14.78125 -27.941406 14.9375 -33.203125 C 22.351562 -33.347656 27.738281 -33.390625 31.09375 -33.328125 C 31.363281 -35.421875 31.601562 -37.398438 31.8125 -39.265625 C 32.132812 -42.546875 32.15625 -44.28125 31.875 -44.46875 C 31.40625 -44.363281 29.523438 -44.066406 26.234375 -43.578125 Z M 26.234375 -43.578125 "/></g></g><g transform="translate(316.899273, 132.000005)"><g><path d="M 20.1875 -9.90625 C 15.789062 -11.21875 13.507812 -11.898438 13.34375 -11.953125 C 6.0625 -13.992188 2.050781 -17.726562 1.3125 -23.15625 C 0.925781 -25.226562 1.0625 -27.59375 1.71875 -30.25 C 3.164062 -36.101562 7.953125 -40.320312 16.078125 -42.90625 C 22.015625 -44.039062 26.921875 -43.695312 30.796875 -41.875 C 30.640625 -37.101562 30.472656 -32.722656 30.296875 -28.734375 C 27.285156 -30.929688 23.296875 -31.507812 18.328125 -30.46875 C 14.785156 -29.007812 13.164062 -27.515625 13.46875 -25.984375 C 13.664062 -24.617188 15.191406 -23.421875 18.046875 -22.390625 C 22.429688 -21.078125 24.707031 -20.398438 24.875 -20.359375 C 32.175781 -18.296875 36.191406 -14.550781 36.921875 -9.125 C 37.316406 -7.050781 37.1875 -4.6875 36.53125 -2.03125 C 34.582031 5.757812 29.796875 9.976562 22.171875 10.625 C 12.828125 11.09375 5.957031 7.21875 1.5625 -1 C 2.9375 -2.882812 4.738281 -5.785156 6.96875 -9.703125 C 11.507812 -2.867188 16.242188 -0.117188 21.171875 -1.453125 C 23.765625 -2.316406 24.96875 -3.929688 24.78125 -6.296875 C 24.582031 -7.660156 23.050781 -8.863281 20.1875 -9.90625 Z M 20.1875 -9.90625 "/></g></g><g transform="translate(355.474467, 132.000005)"><g><path d="M 38.734375 -48.625 C 25.898438 -46.757812 13.207031 -44.785156 0.65625 -42.703125 C 0.582031 -40.929688 0.398438 -35.929688 0.109375 -27.703125 C 5.359375 -28.128906 9.828125 -28.554688 13.515625 -28.984375 L 13.640625 -28.984375 C 12.054688 -9.347656 11.035156 3.957031 10.578125 10.9375 C 16.429688 9.945312 21.867188 9.144531 26.890625 8.53125 C 26.117188 -1.75 25.289062 -14.648438 24.40625 -30.171875 C 29.007812 -30.691406 33.582031 -31.066406 38.125 -31.296875 C 38.53125 -40.921875 38.734375 -46.695312 38.734375 -48.625 Z M 38.734375 -48.625 "/></g></g><g transform="translate(394.80845, 132.000005)"><g><path d="M 16.78125 -30.984375 C 13.4375 -30.972656 8.867188 -30.859375 3.078125 -30.640625 C 2.992188 -16.460938 2.882812 -4.320312 2.75 5.78125 C 10.007812 5.476562 14.425781 5.328125 16 5.328125 C 15.945312 -1.296875 16.207031 -13.398438 16.78125 -30.984375 Z M 13.1875 -45.875 C 11.382812 -46.269531 9.3125 -46.007812 6.96875 -45.09375 C 4.257812 -43.9375 2.835938 -41.925781 2.703125 -39.0625 C 2.878906 -36.644531 3.859375 -34.957031 5.640625 -34 C 7.597656 -33.238281 10.238281 -33.484375 13.5625 -34.734375 C 15.988281 -35.867188 17.289062 -37.988281 17.46875 -41.09375 C 17.59375 -42.363281 17.113281 -43.546875 16.03125 -44.640625 C 15.300781 -45.203125 14.351562 -45.613281 13.1875 -45.875 Z M 13.1875 -45.875 "/></g></g><g transform="translate(415.152199, 132.000005)"><g><path d="M 30.578125 -45.09375 C 30.109375 -36.082031 29.695312 -27.148438 29.34375 -18.296875 C 27.289062 -22.191406 24.203125 -30.789062 20.078125 -44.09375 C 16.191406 -43.78125 11.125 -43.210938 4.875 -42.390625 C 3.882812 -25.648438 2.894531 -9.398438 1.90625 6.359375 C 4.351562 6.640625 8.242188 6.910156 13.578125 7.171875 C 13.960938 1.171875 14.34375 -10.570312 14.71875 -28.0625 C 17.238281 -20.695312 19.441406 -13.285156 21.328125 -5.828125 C 23.210938 1.628906 24.414062 5.457031 24.9375 5.65625 C 27.632812 5.5 32.671875 5.335938 40.046875 5.171875 C 41.796875 -18.253906 43.035156 -34.613281 43.765625 -43.90625 C 40.492188 -44.300781 36.097656 -44.695312 30.578125 -45.09375 Z M 30.578125 -45.09375 "/></g></g><g transform="translate(460.105322, 132.000005)"><g><path d="M 37.8125 -11.546875 C 38.007812 -7.492188 37.375 -4.054688 35.90625 -1.234375 C 33.226562 3.523438 29.804688 6.492188 25.640625 7.671875 C 11.179688 9.890625 3.625 1.789062 2.96875 -16.625 C 3.09375 -19.65625 3.550781 -22.710938 4.34375 -25.796875 C 5.820312 -30.867188 7.96875 -35.347656 10.78125 -39.234375 C 18.070312 -47.804688 26.03125 -49.644531 34.65625 -44.75 L 32.65625 -28.03125 C 31.082031 -29.5 27.757812 -30.144531 22.6875 -29.96875 C 19.375 -29.9375 16.710938 -27.128906 14.703125 -21.546875 C 13.203125 -17.160156 13.445312 -12.863281 15.4375 -8.65625 C 17.289062 -5.363281 19.929688 -3.941406 23.359375 -4.390625 C 26.554688 -4.609375 28.5 -6.925781 29.1875 -11.34375 C 26.25 -11.226562 22.910156 -11.097656 19.171875 -10.953125 C 19.046875 -13.585938 18.945312 -17.195312 18.875 -21.78125 C 27.582031 -21.84375 34.9375 -22.210938 40.9375 -22.890625 C 41.21875 -16.585938 41.394531 -12.8125 41.46875 -11.5625 C 40.457031 -11.582031 39.238281 -11.578125 37.8125 -11.546875 Z M 37.8125 -11.546875 "/></g></g></g></svg>