<svg xmlns="http://www.w3.org/2000/svg" xmlns:xlink="http://www.w3.org/1999/xlink" width="3000" zoomAndPan="magnify" viewBox="0 0 2250 1499.999933" height="2000" preserveAspectRatio="xMidYMid meet" version="1.0"><defs><clipPath id="d48ba7f8f0"><path d="M 405 78.105469 L 1859 78.105469 L 1859 1422.105469 L 405 1422.105469 Z M 405 78.105469 " clip-rule="nonzero"/></clipPath><clipPath id="6797e25e40"><path d="M 405 78.105469 L 1859 78.105469 L 1859 1422.105469 L 405 1422.105469 Z M 405 78.105469 " clip-rule="nonzero"/></clipPath></defs><rect x="-225" width="2700" fill="#ffffff" y="-149.999993" height="1799.99992" fill-opacity="1"/><rect x="-225" width="2700" fill="#ffffff" y="-149.999993" height="1799.99992" fill-opacity="1"/><g clip-path="url(#d48ba7f8f0)"><path fill="#ffffff" d="M 1847.277344 673.398438 C 1832.738281 643.558594 1805.960938 616.011719 1772.296875 596.117188 C 1702.292969 554.417969 1622.726562 558.242188 1595.183594 604.152344 C 1594.800781 604.535156 1594.800781 604.917969 1594.800781 605.300781 C 1589.445312 611.804688 1584.855469 619.453125 1579.882812 628.636719 C 1556.546875 603.003906 1533.59375 577.371094 1510.257812 552.121094 C 1531.296875 536.433594 1546.21875 515.777344 1551.957031 491.671875 C 1556.929688 471.398438 1558.839844 453.796875 1558.078125 438.496094 C 1559.222656 378.046875 1489.601562 321.425781 1397.410156 309.949219 C 1361.449219 305.359375 1327.023438 308.417969 1297.566406 317.21875 C 1240.566406 254.09375 1183.1875 190.964844 1126.570312 127.839844 C 1112.800781 111.773438 1092.90625 102.207031 1071.484375 101.824219 C 1004.921875 98.382812 938.746094 94.558594 872.183594 90.730469 C 802.175781 86.523438 732.554688 82.3125 662.550781 78.488281 C 654.132812 78.105469 646.867188 78.871094 640.746094 81.167969 C 623.914062 79.636719 611.289062 86.140625 602.492188 101.058594 C 526.75 87.671875 438.765625 137.023438 413.515625 210.859375 C 387.503906 287.757812 427.289062 379.195312 501.117188 412.863281 C 486.964844 457.242188 472.8125 501.621094 458.65625 546.382812 C 452.917969 564.363281 449.09375 583.875 460.953125 606.066406 C 595.605469 865.453125 732.554688 1130.199219 867.972656 1392.265625 C 878.6875 1412.921875 886.335938 1422.105469 898.578125 1422.105469 C 906.226562 1422.105469 916.175781 1418.28125 929.179688 1411.394531 C 1099.410156 1323.398438 1269.257812 1235.40625 1439.488281 1147.414062 C 1461.292969 1155.066406 1485.777344 1159.273438 1512.171875 1159.273438 C 1527.089844 1159.273438 1542.390625 1157.742188 1558.078125 1155.066406 C 1652.945312 1138.230469 1721.039062 1073.957031 1716.066406 1005.859375 C 1714.535156 984.433594 1711.09375 966.453125 1705.738281 951.535156 C 1697.703125 923.605469 1674.367188 900.269531 1639.558594 885.347656 C 1609.335938 872.722656 1573.378906 867.367188 1535.890625 870.425781 C 1568.789062 841.734375 1601.6875 813.039062 1634.203125 783.964844 C 1639.941406 788.171875 1645.679688 792 1652.179688 795.824219 C 1683.550781 814.570312 1716.832031 823.753906 1747.050781 823.753906 C 1781.480469 823.753906 1811.316406 811.507812 1828.914062 787.789062 C 1839.242188 773.632812 1846.894531 761.007812 1851.484375 749.148438 C 1862.578125 727.726562 1860.664062 700.945312 1847.277344 673.398438 Z M 735.234375 256.769531 C 740.207031 255.621094 745.5625 255.238281 750.535156 255.238281 C 757.421875 255.238281 764.304688 256.386719 770.808594 258.300781 C 789.554688 264.421875 806.003906 278.578125 815.566406 297.707031 C 825.128906 316.453125 827.042969 337.496094 820.921875 355.859375 C 807.152344 396.027344 764.304688 417.835938 723.757812 405.210938 C 710.75 401.003906 698.890625 392.585938 689.710938 381.109375 C 706.160156 365.039062 718.785156 343.617188 728.347656 314.15625 C 734.085938 295.792969 736.378906 276.664062 735.234375 256.769531 Z M 575.714844 178.722656 C 573.035156 187.140625 570.359375 195.558594 567.679688 203.972656 C 551.230469 255.238281 535.164062 306.503906 518.714844 357.769531 C 472.046875 332.136719 448.328125 275.898438 464.394531 227.695312 C 480.460938 180.636719 534.78125 148.117188 583.746094 152.324219 C 581.070312 161.507812 578.390625 170.308594 575.714844 178.722656 Z M 575.714844 178.722656 " fill-opacity="1" fill-rule="nonzero"/></g><path fill="#ffd034" d="M 1430.308594 1143.589844 C 1261.992188 1230.433594 1094.054688 1317.660156 926.121094 1404.507812 C 895.898438 1420.191406 890.542969 1418.664062 874.859375 1388.820312 C 739.058594 1126.371094 602.109375 862.011719 467.835938 602.621094 C 457.507812 582.726562 460.953125 565.128906 466.308594 548.679688 C 480.460938 504.296875 494.617188 460.300781 508.386719 415.921875 L 525.601562 361.597656 C 542.050781 309.949219 558.5 257.917969 574.949219 206.269531 C 577.625 197.851562 580.304688 189.4375 582.980469 181.019531 C 585.660156 171.835938 588.71875 162.65625 591.78125 153.472656 C 595.988281 154.238281 600.195312 155.003906 604.40625 156.535156 C 608.613281 158.066406 612.820312 159.59375 616.644531 161.507812 C 638.832031 171.835938 657.578125 190.203125 669.4375 213.539062 C 672.496094 219.277344 674.792969 225.398438 676.703125 231.519531 C 654.515625 246.441406 636.921875 267.480469 628.503906 292.351562 C 618.175781 322.191406 621.234375 357.003906 636.921875 387.613281 C 652.605469 418.601562 678.617188 441.554688 708.839844 451.503906 C 721.078125 455.328125 733.703125 457.242188 745.945312 457.242188 C 799.117188 457.242188 849.996094 423.191406 867.210938 370.777344 C 877.15625 340.9375 873.710938 306.503906 858.410156 276.28125 C 842.726562 245.675781 816.332031 222.339844 785.347656 212.390625 C 766.21875 206.269531 745.5625 205.886719 725.667969 210.476562 C 722.992188 203.589844 720.3125 196.324219 716.871094 189.820312 C 696.214844 149.648438 661.402344 119.042969 621.234375 105.652344 C 621.234375 105.652344 620.855469 105.652344 620.855469 105.652344 C 617.792969 104.503906 614.351562 103.738281 610.90625 102.972656 C 615.5 96.085938 621.617188 91.878906 628.886719 89.964844 C 631.566406 89.199219 634.242188 89.199219 637.304688 89.199219 C 642.660156 89.199219 648.777344 90.347656 655.664062 92.261719 C 705.777344 107.945312 756.273438 124.015625 805.238281 139.699219 C 828.191406 146.96875 851.523438 154.621094 874.476562 161.890625 C 894.753906 168.394531 915.410156 174.898438 935.683594 181.402344 C 983.882812 196.707031 1033.996094 212.773438 1083.34375 228.078125 C 1104.765625 233.816406 1122.746094 248.734375 1132.308594 269.011719 C 1156.792969 316.835938 1181.65625 364.65625 1206.140625 412.863281 C 1204.226562 423.191406 1203.078125 435.050781 1202.695312 448.058594 C 1201.933594 492.820312 1232.917969 533.757812 1281.882812 559.390625 C 1338.882812 669.957031 1395.878906 780.519531 1453.261719 890.320312 C 1428.394531 900.652344 1406.589844 914.039062 1388.992188 930.492188 C 1385.550781 933.550781 1382.492188 936.996094 1379.429688 940.054688 L 1112.035156 423.574219 C 1108.210938 416.304688 1102.089844 410.949219 1094.054688 408.652344 C 1086.40625 406.359375 1077.988281 406.742188 1070.71875 410.566406 L 659.492188 622.898438 L 617.410156 644.707031 C 610.144531 648.53125 604.785156 654.652344 602.492188 662.6875 C 600.195312 670.339844 600.578125 678.753906 604.40625 686.023438 L 906.609375 1270.222656 C 910.4375 1277.492188 916.558594 1282.847656 924.589844 1285.140625 C 927.652344 1286.289062 930.710938 1286.671875 933.769531 1286.671875 C 938.746094 1286.671875 943.335938 1285.523438 947.925781 1283.230469 L 1160.617188 1173.429688 L 1236.359375 1134.40625 L 1359.15625 1070.898438 C 1368.71875 1103.035156 1394.730469 1128.285156 1430.308594 1143.589844 Z M 680.914062 280.871094 C 682.824219 267.101562 682.058594 252.945312 678.617188 239.171875 C 659.109375 253.328125 643.042969 272.457031 635.773438 294.644531 C 626.210938 322.574219 629.269531 355.09375 643.804688 384.167969 C 658.34375 413.246094 682.824219 435.050781 711.132812 444.234375 C 771.957031 463.746094 840.050781 428.929688 859.941406 368.484375 C 869.121094 340.554688 866.0625 308.035156 851.523438 279.726562 C 836.605469 250.648438 811.742188 228.84375 783.050781 219.660156 C 773.105469 216.597656 762.777344 215.070312 752.449219 215.070312 C 744.414062 215.070312 736 216.214844 727.964844 217.746094 C 731.023438 228.078125 733.320312 238.789062 734.46875 249.5 C 747.472656 246.824219 760.863281 247.207031 773.105469 251.03125 C 793.761719 257.535156 811.742188 273.222656 822.453125 294.261719 C 832.78125 314.539062 835.074219 337.875 828.191406 358.152344 C 815.949219 394.117188 782.667969 416.304688 747.09375 416.304688 C 738.675781 416.304688 729.878906 415.15625 721.460938 412.480469 C 706.925781 407.890625 694.300781 398.707031 683.972656 386.464844 L 682.441406 384.933594 C 682.058594 384.550781 681.675781 384.167969 681.675781 383.785156 L 681.296875 383.402344 C 670.582031 370.011719 664.464844 353.945312 663.316406 337.113281 C 663.316406 336.730469 663.316406 336.730469 663.316406 336.347656 C 663.316406 334.816406 663.316406 333.667969 663.316406 332.136719 C 662.933594 322.574219 664.082031 313.390625 667.140625 304.59375 C 670.203125 296.175781 674.792969 288.140625 680.914062 280.871094 Z M 1118.15625 996.296875 C 1125.042969 990.9375 1131.542969 985.964844 1137.664062 980.609375 C 1188.542969 936.613281 1190.839844 868.894531 1167.121094 827.960938 C 1146.082031 791.617188 1114.332031 772.867188 1072.632812 771.722656 C 1068.808594 771.722656 1064.984375 771.722656 1061.539062 772.105469 C 1039.351562 773.25 1017.164062 779.371094 995.742188 785.113281 C 990.003906 786.640625 984.265625 788.171875 978.527344 789.703125 C 973.171875 791.234375 967.433594 792.378906 962.078125 793.527344 C 953.664062 795.058594 945.246094 796.589844 936.832031 797.355469 C 921.53125 798.5 909.289062 790.46875 902.402344 774.78125 C 896.28125 762.15625 898.960938 746.855469 908.90625 737.289062 C 924.972656 719.691406 947.160156 708.597656 970.878906 706.300781 C 980.441406 705.535156 989.238281 706.683594 998.039062 710.507812 C 1001.097656 711.65625 1004.160156 713.1875 1007.601562 715.101562 C 1011.808594 717.777344 1016.015625 720.839844 1020.609375 724.664062 L 1073.015625 670.71875 C 1046.238281 647 1016.78125 635.90625 983.5 637.054688 C 973.171875 637.4375 962.460938 638.964844 951.367188 641.644531 C 942.953125 643.558594 934.535156 646.234375 926.121094 649.679688 L 923.058594 650.828125 L 901.253906 608.742188 L 899.726562 609.507812 L 863.382812 628.253906 L 885.1875 670.339844 L 882.894531 672.25 C 880.597656 674.164062 877.921875 676.460938 875.625 678.371094 C 870.652344 682.582031 866.0625 686.023438 861.855469 690.230469 C 833.546875 717.777344 815.183594 762.539062 828.957031 808.832031 C 832.015625 818.777344 836.222656 828.726562 842.34375 839.054688 C 856.5 862.011719 874.859375 876.929688 896.664062 883.816406 C 904.699219 886.496094 913.113281 887.644531 922.296875 888.023438 C 923.441406 888.023438 924.972656 888.023438 926.121094 888.023438 C 953.664062 888.023438 980.824219 881.902344 1006.835938 875.398438 C 1025.964844 870.808594 1044.707031 866.984375 1062.6875 863.921875 C 1070.71875 862.773438 1078.753906 864.304688 1085.640625 868.894531 C 1087.167969 870.042969 1088.699219 870.808594 1089.847656 871.957031 C 1097.882812 878.84375 1102.472656 888.40625 1102.855469 898.738281 C 1103.617188 910.980469 1098.644531 922.839844 1089.464844 932.785156 C 1076.078125 946.558594 1058.863281 956.890625 1040.5 962.246094 C 1039.734375 962.628906 1038.96875 962.628906 1038.203125 963.011719 C 1009.515625 971.808594 984.265625 966.070312 963.226562 945.414062 C 962.460938 944.648438 962.078125 944.265625 961.3125 943.882812 L 955.195312 948.855469 L 952.898438 950.769531 L 900.109375 995.53125 C 900.871094 996.296875 901.636719 997.058594 902.402344 997.824219 C 905.847656 1001.269531 909.289062 1004.710938 912.730469 1007.390625 C 936.449219 1028.050781 963.226562 1038.761719 993.449219 1039.144531 C 1006.070312 1039.144531 1019.460938 1037.613281 1033.230469 1034.554688 C 1034.378906 1034.171875 1035.527344 1034.171875 1036.675781 1033.789062 C 1042.796875 1032.257812 1048.914062 1030.34375 1055.417969 1028.433594 C 1058.480469 1027.667969 1061.539062 1026.519531 1064.601562 1025.371094 L 1067.660156 1024.605469 L 1073.398438 1035.699219 L 1092.90625 1073.195312 L 1094.054688 1075.105469 L 1131.925781 1055.59375 L 1105.914062 1005.09375 L 1108.210938 1003.183594 C 1111.652344 1001.269531 1115.09375 998.972656 1118.15625 996.296875 Z M 1546.984375 476.753906 C 1546.601562 477.519531 1546.21875 478.285156 1545.835938 478.664062 L 1546.21875 479.8125 C 1546.601562 479.046875 1546.601562 477.902344 1546.984375 476.753906 Z M 1274.996094 547.148438 C 1276.910156 548.296875 1279.203125 549.441406 1281.117188 550.589844 C 1283.03125 551.738281 1284.941406 552.503906 1286.855469 553.652344 C 1309.042969 564.746094 1335.054688 572.78125 1363.363281 576.605469 C 1369.867188 577.371094 1376.371094 578.136719 1382.875 578.136719 L 1382.492188 541.027344 C 1377.898438 540.644531 1372.925781 540.261719 1367.953125 539.496094 C 1324.726562 534.140625 1286.472656 518.835938 1258.164062 497.792969 C 1255.871094 495.882812 1253.191406 493.96875 1250.898438 492.054688 C 1248.21875 489.761719 1245.542969 487.464844 1242.863281 485.167969 C 1226.796875 469.867188 1215.320312 452.652344 1210.347656 434.667969 C 1209.964844 438.878906 1209.964844 443.085938 1209.582031 447.675781 C 1209.199219 486.699219 1234.449219 522.664062 1274.996094 547.148438 Z M 1216.085938 423.957031 C 1215.703125 420.515625 1215.320312 417.070312 1215.320312 414.011719 C 1215.320312 411.332031 1215.320312 408.269531 1215.703125 405.59375 C 1215.703125 405.210938 1215.703125 404.445312 1215.703125 404.0625 C 1217.234375 392.96875 1221.058594 383.019531 1226.796875 373.457031 C 1230.621094 367.335938 1235.59375 361.597656 1241.332031 355.859375 C 1256.636719 341.320312 1278.058594 330.226562 1302.921875 323.339844 C 1330.464844 315.6875 1362.597656 313.007812 1395.878906 317.21875 C 1451.730469 324.105469 1498.78125 347.824219 1525.558594 378.8125 C 1528.621094 382.636719 1531.679688 386.082031 1534.359375 389.90625 C 1544.6875 404.828125 1550.042969 421.277344 1550.042969 437.730469 C 1550.042969 440.40625 1550.042969 442.703125 1549.660156 445.382812 C 1548.511719 454.179688 1545.835938 462.597656 1541.628906 470.632812 C 1532.0625 488.230469 1515.230469 503.535156 1491.898438 514.628906 C 1488.453125 516.542969 1484.628906 518.070312 1480.804688 519.601562 C 1452.113281 531.078125 1418.066406 535.671875 1382.492188 532.992188 C 1377.898438 532.609375 1373.691406 532.226562 1369.101562 531.84375 C 1320.136719 525.722656 1277.292969 506.59375 1249.75 480.960938 C 1246.6875 477.902344 1243.628906 475.222656 1240.949219 472.160156 C 1235.210938 466.039062 1230.621094 459.535156 1226.796875 452.652344 C 1225.265625 449.972656 1224.117188 447.675781 1222.972656 445 C 1219.144531 438.113281 1217.234375 430.84375 1216.085938 423.957031 Z M 1320.136719 342.46875 C 1317.839844 343.234375 1315.546875 344 1313.25 344.761719 C 1310.191406 345.910156 1307.128906 347.058594 1304.453125 348.207031 C 1302.921875 348.972656 1301.007812 349.355469 1299.480469 350.121094 C 1298.332031 350.5 1297.183594 351.265625 1296.035156 351.648438 C 1271.171875 363.890625 1255.871094 382.257812 1253.191406 403.679688 C 1247.453125 448.824219 1301.390625 493.203125 1372.925781 502.003906 C 1375.988281 502.386719 1379.046875 502.769531 1382.109375 502.769531 C 1387.847656 503.152344 1393.203125 503.535156 1398.558594 503.535156 C 1419.597656 503.535156 1439.871094 500.089844 1457.085938 493.585938 C 1460.527344 492.4375 1463.589844 491.289062 1466.648438 489.761719 C 1493.425781 477.519531 1509.875 458.390625 1512.554688 436.199219 C 1515.613281 412.480469 1502.226562 389.523438 1478.890625 371.160156 C 1476.59375 369.632812 1474.300781 367.71875 1472.003906 366.1875 C 1469.710938 364.65625 1467.03125 362.746094 1464.355469 361.214844 C 1444.460938 349.355469 1419.980469 340.9375 1392.4375 337.496094 C 1367.570312 334.816406 1342.324219 336.347656 1320.136719 342.46875 Z M 1260.84375 404.828125 C 1255.871094 445.765625 1306.363281 486.316406 1373.691406 494.734375 C 1376.371094 495.117188 1379.429688 495.117188 1382.109375 495.5 C 1406.972656 497.414062 1431.074219 495.117188 1451.730469 487.847656 C 1455.9375 486.316406 1459.761719 484.789062 1463.589844 483.257812 C 1488.070312 472.160156 1502.992188 454.945312 1505.285156 435.433594 C 1508.347656 410.949219 1491.515625 386.464844 1462.824219 369.25 C 1462.058594 368.867188 1461.675781 368.484375 1460.910156 368.101562 C 1458.617188 366.953125 1456.703125 365.804688 1454.40625 364.273438 C 1450.964844 362.746094 1447.90625 360.832031 1444.078125 359.300781 C 1428.777344 352.796875 1411.179688 347.824219 1392.054688 345.527344 C 1383.636719 344.378906 1375.222656 344 1367.1875 344 C 1356.09375 344 1345.382812 345.144531 1335.054688 346.675781 C 1331.996094 347.441406 1328.550781 347.824219 1325.492188 348.589844 C 1324.726562 348.589844 1323.960938 348.972656 1323.195312 348.972656 C 1319.753906 349.738281 1316.695312 350.882812 1313.25 352.03125 C 1309.425781 353.5625 1305.21875 354.710938 1301.773438 356.625 C 1278.058594 368.101562 1263.136719 385.316406 1260.84375 404.828125 Z M 1641.085938 778.992188 C 1646.058594 782.816406 1651.417969 786.257812 1656.773438 789.320312 C 1661.363281 792 1666.335938 794.675781 1670.925781 796.972656 L 1682.785156 769.425781 C 1679.339844 767.511719 1675.515625 765.601562 1672.074219 763.6875 C 1669.394531 762.15625 1666.335938 760.242188 1663.65625 758.332031 C 1612.78125 725.046875 1582.941406 676.078125 1585.621094 635.140625 C 1585.621094 634.375 1585.621094 633.992188 1585.621094 633.226562 C 1585.238281 633.609375 1585.238281 633.992188 1584.855469 634.757812 C 1584.089844 636.671875 1582.941406 638.203125 1582.175781 640.113281 C 1562.667969 682.964844 1587.914062 740.351562 1641.085938 778.992188 Z M 1845.746094 745.707031 C 1844.980469 747.617188 1843.832031 749.53125 1842.6875 751.445312 C 1838.859375 757.566406 1834.269531 762.921875 1828.53125 767.511719 C 1815.527344 777.84375 1797.164062 783.964844 1775.742188 784.730469 C 1747.050781 785.875 1715.683594 777.84375 1685.84375 762.15625 C 1682.402344 760.242188 1679.339844 758.714844 1676.28125 756.800781 C 1673.984375 755.269531 1671.308594 753.738281 1669.011719 752.210938 C 1623.109375 722.367188 1594.800781 679.902344 1593.269531 643.175781 C 1592.886719 630.933594 1595.183594 619.453125 1600.921875 609.125 C 1601.304688 608.742188 1601.304688 608.359375 1601.6875 607.976562 C 1607.042969 598.796875 1615.074219 591.527344 1624.257812 586.171875 C 1629.613281 583.109375 1635.730469 580.433594 1642.234375 578.519531 C 1676.664062 568.570312 1724.480469 576.222656 1768.089844 602.238281 C 1800.605469 621.367188 1826.238281 647.765625 1840.390625 676.460938 C 1842.304688 680.667969 1844.214844 684.875 1845.746094 689.085938 C 1847.277344 693.292969 1848.425781 697.5 1849.570312 701.710938 C 1852.632812 717.777344 1851.484375 733.082031 1845.746094 745.707031 Z M 1825.472656 707.832031 C 1825.472656 705.917969 1825.472656 704.003906 1825.089844 701.710938 C 1824.324219 692.527344 1820.882812 682.582031 1816.289062 673.015625 C 1815.144531 670.71875 1813.613281 668.042969 1812.082031 665.746094 C 1810.550781 663.070312 1809.023438 660.773438 1807.109375 658.09375 C 1795.632812 642.410156 1779.566406 627.488281 1760.058594 615.628906 C 1739.402344 603.386719 1717.214844 595.734375 1696.171875 593.820312 C 1693.113281 593.441406 1689.671875 593.441406 1686.609375 593.441406 C 1685.460938 593.441406 1684.695312 593.441406 1683.550781 593.441406 C 1681.636719 593.441406 1679.722656 593.441406 1677.8125 593.820312 C 1655.625 595.351562 1638.792969 604.535156 1629.613281 619.453125 C 1620.046875 635.90625 1620.8125 656.949219 1632.289062 679.136719 C 1643.382812 700.945312 1663.65625 720.839844 1688.523438 735.757812 C 1690.816406 737.289062 1693.113281 738.4375 1695.410156 739.585938 C 1718.359375 751.828125 1742.078125 757.949219 1763.117188 757.949219 C 1787.984375 757.949219 1809.023438 749.148438 1818.96875 731.933594 C 1823.558594 725.429688 1825.472656 717.011719 1825.472656 707.832031 Z M 1800.605469 662.6875 C 1799.078125 660.773438 1797.546875 658.859375 1796.015625 656.949219 C 1793.722656 653.886719 1791.042969 651.210938 1787.984375 648.148438 C 1778.800781 638.964844 1768.089844 630.550781 1755.847656 623.28125 C 1742.84375 615.628906 1729.453125 609.890625 1716.066406 606.449219 C 1711.855469 605.300781 1707.648438 604.535156 1703.824219 603.769531 C 1700.382812 603.003906 1696.9375 602.621094 1693.496094 602.621094 C 1690.816406 602.238281 1688.140625 602.238281 1685.078125 602.238281 C 1684.3125 602.238281 1683.933594 602.238281 1683.167969 602.238281 C 1660.980469 602.621094 1644.148438 610.65625 1635.730469 624.429688 C 1627.316406 638.582031 1628.464844 656.949219 1638.792969 676.839844 C 1649.503906 697.117188 1668.246094 716.246094 1692.347656 730.402344 C 1694.261719 731.550781 1696.554688 732.699219 1698.46875 733.847656 C 1745.519531 759.097656 1795.632812 757.566406 1812.464844 729.636719 C 1822.792969 712.039062 1818.203125 687.9375 1802.136719 665.363281 C 1801.753906 663.835938 1800.988281 663.453125 1800.605469 662.6875 Z M 1550.425781 1109.539062 C 1534.742188 1112.214844 1519.441406 1113.746094 1504.902344 1113.746094 C 1504.136719 1113.746094 1503.375 1113.746094 1502.609375 1113.746094 C 1500.695312 1113.746094 1498.398438 1113.746094 1496.488281 1113.746094 C 1493.808594 1113.746094 1491.132812 1113.746094 1488.835938 1113.363281 C 1438.339844 1110.6875 1394.730469 1092.707031 1370.632812 1064.777344 C 1369.867188 1063.628906 1369.101562 1062.863281 1367.953125 1061.714844 C 1367.1875 1060.570312 1366.425781 1059.804688 1365.660156 1058.65625 C 1364.511719 1057.125 1363.363281 1055.59375 1362.597656 1054.066406 C 1362.980469 1055.976562 1363.363281 1057.890625 1364.128906 1059.421875 C 1364.511719 1060.570312 1364.894531 1062.097656 1365.277344 1063.246094 C 1365.660156 1064.394531 1366.042969 1065.925781 1366.425781 1067.074219 C 1366.425781 1067.453125 1366.425781 1067.453125 1366.804688 1067.835938 C 1375.988281 1100.355469 1403.148438 1125.222656 1439.871094 1138.996094 C 1441.402344 1139.761719 1443.3125 1140.144531 1444.84375 1140.910156 C 1446.375 1141.675781 1448.289062 1142.058594 1449.816406 1142.441406 C 1481.1875 1152.386719 1518.675781 1154.683594 1558.078125 1147.414062 C 1564.578125 1146.265625 1571.464844 1144.734375 1577.585938 1143.207031 L 1565.726562 1106.476562 C 1560.371094 1107.625 1555.398438 1108.390625 1550.425781 1109.539062 Z M 1706.882812 995.148438 L 1708.03125 996.296875 C 1708.03125 994.765625 1707.648438 993.234375 1707.648438 991.703125 C 1707.265625 992.851562 1707.265625 994 1706.882812 995.148438 Z M 1700.765625 961.097656 C 1702.292969 970.28125 1702.292969 979.460938 1700.382812 988.644531 C 1690.816406 1036.847656 1636.113281 1081.992188 1562.667969 1099.207031 C 1558.078125 1100.355469 1553.484375 1101.121094 1548.894531 1101.886719 C 1539.332031 1103.417969 1529.769531 1104.566406 1520.585938 1105.332031 C 1517.527344 1105.710938 1514.464844 1105.710938 1511.40625 1105.710938 C 1508.347656 1105.710938 1505.667969 1105.710938 1502.609375 1105.710938 C 1449.050781 1105.710938 1402.382812 1088.878906 1377.136719 1060.570312 C 1376.371094 1059.421875 1375.222656 1058.65625 1374.457031 1057.507812 C 1373.691406 1056.359375 1372.925781 1055.59375 1372.160156 1054.449219 C 1365.660156 1045.648438 1361.070312 1036.082031 1358.390625 1026.136719 C 1358.390625 1025.371094 1358.007812 1024.605469 1358.007812 1023.839844 C 1358.007812 1023.457031 1357.625 1022.691406 1357.625 1022.3125 C 1355.710938 1011.597656 1356.09375 1000.886719 1358.773438 990.554688 C 1360.6875 982.90625 1363.746094 975.636719 1367.953125 967.984375 C 1370.632812 963.394531 1373.691406 958.421875 1377.136719 953.828125 C 1377.898438 952.679688 1378.664062 951.535156 1379.8125 950.386719 C 1380.578125 949.238281 1381.726562 948.089844 1382.492188 947.324219 C 1385.933594 943.5 1389.375 939.671875 1393.203125 935.847656 C 1410.035156 919.78125 1431.457031 906.773438 1455.554688 896.824219 C 1456.703125 896.441406 1457.851562 895.675781 1459 895.292969 C 1460.144531 894.910156 1461.292969 894.53125 1462.441406 893.765625 C 1476.976562 888.40625 1492.660156 883.816406 1508.730469 881.140625 C 1514.464844 879.992188 1520.203125 879.226562 1525.941406 878.84375 C 1535.890625 877.695312 1545.835938 876.929688 1555.78125 876.929688 C 1585.238281 876.929688 1612.78125 881.902344 1636.496094 892.234375 C 1643.765625 895.292969 1650.652344 898.738281 1656.769531 902.5625 C 1660.980469 905.242188 1664.804688 907.917969 1668.628906 910.980469 C 1683.550781 922.839844 1693.496094 937.378906 1698.46875 953.0625 C 1700 955.742188 1700.382812 958.417969 1700.765625 961.097656 Z M 1661.746094 963.011719 C 1657.535156 938.910156 1637.261719 919.78125 1608.1875 909.066406 C 1605.511719 907.917969 1602.832031 907.15625 1600.15625 906.390625 C 1597.476562 905.625 1594.417969 904.859375 1591.355469 904.09375 C 1568.40625 898.738281 1541.246094 897.589844 1513.320312 902.945312 C 1506.816406 904.09375 1500.695312 905.625 1494.574219 907.15625 C 1487.304688 909.066406 1480.039062 911.363281 1473.535156 914.039062 C 1472.386719 914.421875 1471.238281 914.804688 1470.09375 915.570312 C 1468.945312 915.953125 1467.796875 916.71875 1466.648438 917.101562 C 1455.554688 922.074219 1445.609375 927.8125 1436.429688 934.316406 C 1433.75 936.230469 1431.457031 938.144531 1428.777344 940.054688 C 1426.484375 941.96875 1424.1875 943.882812 1421.890625 946.175781 C 1411.179688 956.125 1403.148438 967.601562 1398.558594 979.078125 C 1397.792969 980.609375 1397.410156 982.523438 1396.644531 984.050781 C 1396.261719 985.964844 1395.496094 987.878906 1395.113281 989.410156 C 1394.730469 991.320312 1394.347656 993.234375 1394.347656 994.765625 C 1393.585938 1000.121094 1393.96875 1005.476562 1394.730469 1010.832031 C 1396.261719 1019.25 1399.703125 1027.285156 1405.0625 1034.554688 C 1405.824219 1035.699219 1406.589844 1036.847656 1407.738281 1037.613281 C 1408.503906 1038.761719 1409.269531 1039.527344 1410.417969 1040.675781 C 1429.925781 1061.714844 1465.503906 1074.339844 1506.433594 1074.339844 C 1518.292969 1074.339844 1530.535156 1073.195312 1543.15625 1070.898438 C 1544.304688 1070.515625 1545.835938 1070.515625 1546.984375 1070.132812 C 1548.128906 1069.75 1549.660156 1069.75 1550.808594 1069.367188 C 1551.574219 1069.367188 1551.957031 1068.984375 1552.722656 1068.984375 C 1621.578125 1053.683594 1669.777344 1007.390625 1661.746094 963.011719 Z M 1591.738281 912.128906 C 1590.976562 912.128906 1590.210938 911.746094 1589.445312 911.746094 C 1587.148438 911.363281 1584.472656 910.597656 1582.175781 910.214844 C 1578.734375 909.449219 1574.90625 909.066406 1571.082031 908.683594 C 1564.578125 907.917969 1557.695312 907.535156 1550.808594 907.535156 C 1539.332031 907.535156 1527.089844 908.683594 1514.847656 910.597656 C 1502.609375 912.894531 1491.132812 915.953125 1480.421875 919.78125 C 1479.273438 920.160156 1478.125 920.542969 1476.976562 920.925781 C 1475.832031 921.308594 1474.683594 921.691406 1473.535156 922.457031 C 1472.386719 922.839844 1471.238281 923.605469 1470.09375 923.988281 C 1465.882812 925.902344 1462.058594 927.8125 1458.234375 929.726562 C 1454.789062 931.640625 1451.347656 933.550781 1447.90625 935.464844 C 1444.84375 937.378906 1442.167969 939.289062 1439.105469 941.203125 C 1421.128906 954.210938 1408.886719 969.898438 1404.296875 986.347656 C 1404.296875 986.730469 1403.914062 987.496094 1403.914062 987.878906 C 1403.53125 989.792969 1403.148438 991.703125 1402.765625 994 C 1402.382812 996.296875 1402.382812 998.972656 1402.382812 1001.269531 C 1402.382812 1003.945312 1402.765625 1006.625 1403.148438 1009.304688 C 1404.296875 1015.425781 1406.207031 1020.78125 1409.652344 1026.136719 C 1410.417969 1027.667969 1411.5625 1028.8125 1412.328125 1030.34375 C 1413.09375 1031.492188 1414.242188 1032.640625 1415.007812 1033.789062 C 1437.578125 1060.1875 1487.6875 1073.195312 1541.628906 1063.628906 C 1542.011719 1063.628906 1542.011719 1063.628906 1542.394531 1063.628906 C 1543.539062 1063.628906 1544.304688 1063.246094 1545.453125 1062.863281 C 1546.601562 1062.480469 1548.128906 1062.480469 1549.277344 1062.097656 C 1549.660156 1062.097656 1550.425781 1061.714844 1550.808594 1061.714844 C 1615.457031 1047.179688 1661.363281 1004.710938 1654.09375 964.539062 C 1649.886719 939.289062 1625.402344 920.542969 1591.738281 912.128906 Z M 1591.738281 912.128906 " fill-opacity="1" fill-rule="nonzero"/><g clip-path="url(#6797e25e40)"><path fill="#000000" d="M 1296.035156 351.648438 C 1271.171875 363.890625 1255.871094 382.257812 1253.191406 403.679688 C 1247.453125 448.824219 1301.390625 493.203125 1372.925781 502.003906 C 1375.988281 502.386719 1379.046875 502.769531 1382.109375 502.769531 C 1387.847656 503.152344 1393.203125 503.535156 1398.558594 503.535156 C 1419.597656 503.535156 1439.871094 500.089844 1457.085938 493.585938 C 1460.527344 492.4375 1463.589844 491.289062 1466.648438 489.761719 C 1493.425781 477.519531 1509.875 458.390625 1512.554688 436.199219 C 1515.613281 412.480469 1502.226562 389.523438 1478.890625 371.160156 C 1476.59375 369.632812 1474.300781 367.71875 1472.003906 366.1875 C 1469.710938 364.65625 1467.03125 362.746094 1464.355469 361.214844 C 1444.460938 349.355469 1419.980469 340.9375 1392.4375 337.496094 C 1366.804688 334.433594 1341.175781 335.964844 1319.371094 342.085938 C 1317.078125 342.851562 1314.78125 343.617188 1312.484375 344.378906 C 1309.425781 345.527344 1306.363281 346.675781 1303.6875 347.824219 C 1302.15625 348.589844 1300.246094 348.972656 1298.714844 349.738281 C 1298.332031 350.5 1297.183594 351.265625 1296.035156 351.648438 Z M 1323.960938 349.355469 C 1324.726562 349.355469 1325.492188 348.972656 1326.257812 348.972656 C 1329.316406 348.207031 1332.378906 347.441406 1335.820312 347.058594 C 1346.148438 345.144531 1356.859375 344.378906 1367.953125 344.378906 C 1375.988281 344.378906 1384.402344 344.761719 1392.820312 345.910156 C 1411.5625 348.207031 1429.160156 353.179688 1444.84375 359.683594 C 1448.289062 361.214844 1451.730469 362.746094 1455.171875 364.65625 C 1457.46875 365.804688 1459.765625 366.953125 1461.675781 368.484375 C 1462.441406 368.867188 1462.824219 369.25 1463.589844 369.632812 C 1492.28125 386.847656 1509.113281 411.332031 1506.050781 435.816406 C 1503.757812 455.328125 1488.835938 472.160156 1464.355469 483.640625 C 1460.527344 485.550781 1456.703125 487.082031 1452.496094 488.230469 C 1431.839844 495.117188 1407.738281 497.792969 1382.875 495.882812 C 1380.195312 495.5 1377.136719 495.5 1374.457031 495.117188 C 1307.128906 486.699219 1256.253906 446.53125 1261.609375 405.210938 C 1263.902344 385.699219 1278.824219 368.867188 1303.304688 357.386719 C 1307.128906 355.859375 1310.957031 354.328125 1314.78125 352.796875 C 1317.457031 351.265625 1320.519531 350.5 1323.960938 349.355469 Z M 1847.277344 673.398438 C 1832.738281 643.558594 1805.960938 616.011719 1772.296875 596.117188 C 1702.292969 554.417969 1622.726562 558.242188 1595.183594 604.152344 C 1594.800781 604.535156 1594.800781 604.917969 1594.800781 605.300781 C 1589.445312 611.804688 1584.855469 619.453125 1579.882812 628.636719 C 1556.546875 603.003906 1533.59375 577.371094 1510.257812 552.121094 C 1531.296875 536.433594 1546.21875 515.777344 1551.957031 491.671875 C 1556.929688 471.398438 1558.839844 453.796875 1558.078125 438.496094 C 1559.222656 378.046875 1489.601562 321.425781 1397.410156 309.949219 C 1361.449219 305.359375 1327.023438 308.417969 1297.566406 317.21875 C 1240.566406 254.09375 1183.1875 190.964844 1126.570312 127.839844 C 1112.800781 111.773438 1092.90625 102.207031 1071.484375 101.824219 C 1004.921875 98.382812 938.746094 94.558594 872.183594 90.730469 C 802.175781 86.523438 732.554688 82.3125 662.550781 78.488281 C 654.132812 78.105469 646.867188 78.871094 640.746094 81.167969 C 623.914062 79.636719 611.289062 86.140625 602.492188 101.058594 C 526.75 87.671875 438.765625 137.023438 413.515625 210.859375 C 387.503906 287.757812 427.289062 379.195312 501.117188 412.863281 C 486.964844 457.242188 472.8125 501.621094 458.65625 546.382812 C 452.917969 564.363281 449.09375 583.875 460.953125 606.066406 C 595.605469 865.453125 732.554688 1130.199219 867.972656 1392.265625 C 878.6875 1412.921875 886.335938 1422.105469 898.578125 1422.105469 C 906.226562 1422.105469 916.175781 1418.28125 929.179688 1411.394531 C 1099.410156 1323.398438 1269.257812 1235.40625 1439.488281 1147.414062 C 1461.292969 1155.066406 1485.777344 1159.273438 1512.171875 1159.273438 C 1527.089844 1159.273438 1542.390625 1157.742188 1558.078125 1155.066406 C 1652.945312 1138.230469 1721.039062 1073.957031 1716.066406 1005.859375 C 1714.535156 984.433594 1711.09375 966.453125 1705.738281 951.535156 C 1697.703125 923.605469 1674.367188 900.269531 1639.558594 885.347656 C 1609.335938 872.722656 1573.378906 867.367188 1535.890625 870.425781 C 1568.789062 841.734375 1601.6875 813.039062 1634.203125 783.964844 C 1639.941406 788.171875 1645.679688 792 1652.179688 795.824219 C 1683.550781 814.570312 1716.832031 823.753906 1747.050781 823.753906 C 1781.480469 823.753906 1811.316406 811.507812 1828.914062 787.789062 C 1839.242188 773.632812 1846.894531 761.007812 1851.484375 749.148438 C 1862.578125 727.726562 1860.664062 700.945312 1847.277344 673.398438 Z M 1637.261719 892.617188 C 1644.53125 895.675781 1651.417969 899.121094 1657.535156 902.945312 C 1661.746094 905.625 1665.570312 908.300781 1669.394531 911.363281 C 1684.316406 923.222656 1694.261719 937.761719 1699.234375 953.445312 C 1700 956.125 1700.761719 958.417969 1701.144531 961.097656 C 1702.675781 970.28125 1702.675781 979.460938 1700.761719 988.644531 C 1691.199219 1036.847656 1636.496094 1081.992188 1563.050781 1099.207031 C 1558.457031 1100.355469 1553.867188 1101.121094 1549.277344 1101.886719 C 1539.714844 1103.417969 1530.152344 1104.566406 1520.96875 1105.332031 C 1517.910156 1105.710938 1514.847656 1105.710938 1511.789062 1105.710938 C 1508.730469 1105.710938 1506.050781 1105.710938 1502.992188 1105.710938 C 1449.433594 1105.710938 1402.765625 1088.878906 1377.515625 1060.570312 C 1376.753906 1059.421875 1375.605469 1058.65625 1374.839844 1057.507812 C 1374.074219 1056.359375 1373.308594 1055.59375 1372.542969 1054.449219 C 1366.042969 1045.648438 1361.449219 1036.082031 1358.773438 1026.136719 C 1358.773438 1025.371094 1358.390625 1024.605469 1358.390625 1023.839844 C 1358.390625 1023.457031 1358.007812 1022.691406 1358.007812 1022.3125 C 1356.09375 1011.597656 1356.476562 1000.886719 1359.15625 990.554688 C 1361.066406 982.90625 1364.128906 975.636719 1368.335938 967.984375 C 1371.015625 963.394531 1374.074219 958.421875 1377.515625 953.828125 C 1378.28125 952.679688 1379.046875 951.535156 1380.195312 950.386719 C 1380.960938 949.238281 1382.109375 948.089844 1382.871094 947.324219 C 1386.316406 943.5 1389.757812 939.671875 1393.585938 935.847656 C 1410.414062 919.78125 1431.839844 906.773438 1455.9375 896.824219 C 1457.085938 896.441406 1458.234375 895.675781 1459.378906 895.292969 C 1460.527344 894.910156 1461.675781 894.53125 1462.824219 893.765625 C 1477.359375 888.40625 1493.042969 883.816406 1509.109375 881.140625 C 1514.847656 879.992188 1520.585938 879.226562 1526.324219 878.84375 C 1536.269531 877.695312 1546.21875 876.929688 1556.164062 876.929688 C 1586 877.3125 1613.542969 882.285156 1637.261719 892.617188 Z M 1449.433594 1142.441406 C 1447.90625 1142.058594 1445.992188 1141.292969 1444.460938 1140.910156 C 1442.933594 1140.527344 1441.019531 1139.761719 1439.488281 1138.996094 C 1402.765625 1125.222656 1375.605469 1100.355469 1366.425781 1067.835938 C 1366.425781 1067.453125 1366.425781 1067.453125 1366.042969 1067.074219 C 1365.660156 1065.925781 1365.277344 1064.394531 1364.894531 1063.246094 C 1364.511719 1062.097656 1364.128906 1060.570312 1363.746094 1059.421875 C 1363.363281 1057.507812 1362.980469 1055.59375 1362.214844 1054.066406 C 1363.363281 1055.59375 1364.128906 1057.125 1365.277344 1058.65625 C 1366.042969 1059.804688 1366.804688 1060.570312 1367.570312 1061.714844 C 1368.335938 1062.863281 1369.101562 1063.628906 1370.25 1064.777344 C 1394.730469 1092.703125 1437.957031 1110.6875 1488.453125 1113.363281 C 1491.132812 1113.363281 1493.425781 1113.746094 1496.105469 1113.746094 C 1498.019531 1113.746094 1500.3125 1113.746094 1502.226562 1113.746094 C 1502.992188 1113.746094 1503.753906 1113.746094 1504.519531 1113.746094 C 1519.441406 1113.746094 1534.742188 1112.214844 1550.042969 1109.539062 C 1555.015625 1108.773438 1559.988281 1107.625 1564.578125 1106.476562 L 1576.4375 1143.207031 C 1569.933594 1144.734375 1563.433594 1146.265625 1556.929688 1147.414062 C 1518.292969 1154.683594 1480.804688 1152.386719 1449.433594 1142.441406 Z M 874.859375 1388.820312 C 739.058594 1126.371094 602.109375 862.011719 467.835938 602.621094 C 457.507812 582.726562 460.953125 565.128906 466.308594 548.679688 C 480.460938 504.296875 494.617188 460.300781 508.386719 415.921875 L 525.601562 361.597656 C 542.050781 309.949219 558.5 257.917969 574.949219 206.269531 C 577.625 197.851562 580.304688 189.4375 582.980469 181.019531 C 585.660156 171.835938 588.71875 162.65625 591.78125 153.472656 C 595.988281 154.238281 600.195312 155.003906 604.40625 156.535156 C 608.613281 158.066406 612.820312 159.59375 616.644531 161.507812 C 638.832031 171.835938 657.578125 190.203125 669.4375 213.539062 C 672.496094 219.277344 674.792969 225.398438 676.703125 231.519531 C 654.515625 246.441406 636.921875 267.480469 628.503906 292.351562 C 618.175781 322.191406 621.234375 357.003906 636.921875 387.613281 C 652.605469 418.601562 678.617188 441.554688 708.839844 451.503906 C 721.078125 455.328125 733.703125 457.242188 745.945312 457.242188 C 799.117188 457.242188 849.996094 423.191406 867.210938 370.777344 C 877.15625 340.9375 873.710938 306.503906 858.410156 276.28125 C 842.726562 245.675781 816.332031 222.339844 785.347656 212.390625 C 766.21875 206.269531 745.5625 205.886719 725.667969 210.476562 C 722.992188 203.589844 720.3125 196.324219 716.871094 189.820312 C 696.214844 149.648438 661.402344 119.042969 621.234375 105.652344 C 621.234375 105.652344 620.855469 105.652344 620.855469 105.652344 C 617.792969 104.503906 614.351562 103.738281 610.90625 102.972656 C 615.5 96.085938 621.617188 91.878906 628.886719 89.964844 C 631.566406 89.199219 634.242188 89.199219 637.304688 89.199219 C 642.660156 89.199219 648.777344 90.347656 655.664062 92.261719 C 705.777344 107.945312 756.273438 124.015625 805.238281 139.699219 C 828.191406 146.96875 851.523438 154.621094 874.476562 161.890625 C 894.753906 168.394531 915.410156 174.898438 935.683594 181.402344 C 983.882812 196.707031 1033.996094 212.773438 1083.34375 228.078125 C 1104.765625 233.816406 1122.746094 248.734375 1132.308594 269.011719 C 1156.792969 316.835938 1181.65625 364.65625 1206.140625 412.863281 C 1204.226562 423.191406 1203.078125 435.050781 1202.695312 448.058594 C 1201.933594 492.820312 1232.917969 533.757812 1281.882812 559.390625 C 1338.882812 669.957031 1395.878906 780.519531 1453.261719 890.320312 C 1428.394531 900.652344 1406.589844 914.039062 1388.992188 930.492188 C 1385.550781 933.550781 1382.492188 936.996094 1379.429688 940.054688 L 1112.035156 423.574219 C 1108.210938 416.304688 1102.089844 410.949219 1094.054688 408.652344 C 1086.40625 406.359375 1077.988281 406.742188 1070.71875 410.566406 L 659.492188 622.898438 L 617.410156 644.707031 C 610.144531 648.53125 604.785156 654.652344 602.492188 662.6875 C 600.195312 670.339844 600.578125 678.753906 604.40625 686.023438 L 906.609375 1270.222656 C 910.4375 1277.492188 916.558594 1282.847656 924.589844 1285.140625 C 927.652344 1286.289062 930.710938 1286.671875 933.769531 1286.671875 C 938.746094 1286.671875 943.335938 1285.523438 947.925781 1283.230469 L 1160.617188 1173.429688 L 1236.359375 1134.40625 L 1359.15625 1070.898438 C 1368.71875 1103.417969 1395.113281 1128.667969 1430.691406 1143.96875 C 1262.375 1230.816406 1094.4375 1318.042969 926.503906 1404.890625 C 895.515625 1420.191406 890.542969 1418.664062 874.859375 1388.820312 Z M 576.863281 106.417969 C 584.128906 106.417969 591.78125 107.183594 599.050781 108.328125 C 600.195312 108.710938 601.726562 108.710938 602.875 109.09375 C 604.023438 109.476562 605.550781 109.476562 606.699219 109.859375 C 610.523438 110.625 614.351562 111.773438 618.175781 112.921875 C 618.558594 112.921875 618.941406 112.921875 619.707031 113.304688 C 657.578125 125.929688 690.476562 155.003906 709.984375 193.261719 C 713.046875 199.382812 715.722656 205.886719 718.402344 212.390625 C 718.785156 213.539062 719.167969 214.6875 719.550781 216.214844 C 719.929688 217.363281 720.3125 218.511719 720.695312 219.660156 C 724.140625 229.988281 726.050781 240.703125 727.199219 251.414062 C 727.199219 252.5625 727.582031 254.09375 727.582031 255.238281 C 727.582031 256.386719 727.964844 257.917969 727.964844 259.066406 C 729.113281 277.046875 726.816406 295.027344 721.078125 311.863281 C 711.515625 339.40625 700.039062 359.683594 684.738281 374.988281 C 675.558594 362.363281 670.964844 347.824219 670.964844 332.136719 C 670.964844 330.609375 670.964844 328.695312 670.964844 327.164062 C 676.703125 318.746094 680.914062 309.566406 684.355469 299.617188 C 685.886719 294.261719 687.414062 288.90625 688.179688 283.550781 C 688.5625 281.253906 688.945312 279.34375 688.945312 277.046875 C 689.328125 275.132812 689.328125 273.222656 689.328125 271.308594 C 690.09375 259.066406 688.5625 246.441406 685.121094 234.199219 C 684.738281 233.050781 684.355469 231.902344 683.972656 230.371094 C 683.589844 229.222656 683.207031 227.695312 682.824219 226.546875 C 680.914062 220.808594 678.617188 215.070312 675.558594 209.332031 C 662.550781 183.699219 641.511719 163.421875 616.644531 152.707031 C 613.203125 151.179688 609.761719 150.03125 606.316406 148.882812 C 602.109375 147.734375 597.902344 146.585938 593.695312 145.820312 C 592.546875 145.441406 591.015625 145.441406 589.867188 145.058594 C 588.71875 145.058594 587.191406 144.675781 586.042969 144.675781 C 533.253906 139.320312 474.339844 174.132812 457.125 225.015625 C 439.53125 277.429688 465.542969 338.257812 516.421875 365.421875 L 503.796875 405.59375 C 433.792969 373.457031 395.921875 286.230469 420.785156 213.15625 C 442.207031 150.414062 511.066406 106.417969 576.863281 106.417969 Z M 584.128906 152.707031 C 581.453125 161.507812 578.390625 170.308594 575.714844 178.722656 C 573.035156 187.140625 570.359375 195.558594 567.679688 203.972656 C 551.230469 255.238281 535.164062 306.503906 518.714844 357.769531 C 472.046875 332.136719 448.328125 275.898438 464.394531 227.695312 C 480.460938 180.636719 534.78125 148.117188 584.128906 152.707031 Z M 680.914062 280.871094 C 674.792969 288.140625 670.203125 296.175781 667.140625 304.976562 C 664.082031 313.773438 662.933594 322.957031 663.316406 332.519531 C 663.316406 334.050781 663.316406 335.199219 663.316406 336.730469 C 663.316406 337.113281 663.316406 337.113281 663.316406 337.496094 C 664.464844 354.328125 670.582031 370.394531 681.296875 383.785156 L 681.675781 384.167969 L 682.441406 385.316406 L 683.972656 386.847656 C 693.917969 399.089844 706.925781 408.269531 721.460938 412.863281 C 729.878906 415.539062 738.675781 416.6875 747.09375 416.6875 C 783.050781 416.6875 815.949219 394.117188 828.191406 358.535156 C 834.695312 338.257812 832.78125 314.921875 822.453125 294.644531 C 811.742188 273.984375 793.761719 258.300781 773.105469 251.414062 C 760.863281 247.589844 747.472656 247.207031 734.46875 249.882812 C 733.320312 239.171875 731.023438 228.460938 727.964844 218.128906 C 736 216.597656 744.03125 215.453125 752.449219 215.453125 C 762.777344 215.453125 773.105469 216.980469 783.050781 220.042969 C 811.742188 229.222656 836.605469 251.03125 851.523438 280.109375 C 866.0625 308.417969 869.121094 340.9375 859.941406 368.867188 C 840.050781 429.695312 771.957031 464.128906 711.132812 444.617188 C 682.824219 435.433594 658.34375 413.628906 643.804688 384.550781 C 629.269531 355.476562 626.59375 322.957031 635.773438 295.027344 C 643.421875 272.839844 659.109375 253.710938 678.617188 239.554688 C 682.058594 252.945312 682.824219 267.101562 680.914062 280.871094 Z M 735.234375 256.769531 C 740.207031 255.621094 745.5625 255.238281 750.535156 255.238281 C 757.421875 255.238281 764.304688 256.386719 770.808594 258.300781 C 789.554688 264.421875 806.003906 278.578125 815.566406 297.707031 C 825.128906 316.453125 827.042969 337.496094 820.921875 355.859375 C 807.152344 396.027344 764.304688 417.835938 723.757812 405.210938 C 710.75 401.003906 698.890625 392.585938 689.710938 381.109375 C 706.160156 365.039062 718.785156 343.617188 728.347656 314.15625 C 734.085938 295.792969 736.378906 276.664062 735.234375 256.769531 Z M 1395.878906 317.21875 C 1451.730469 324.105469 1498.78125 347.824219 1525.558594 378.8125 C 1528.621094 382.636719 1531.679688 386.082031 1534.359375 389.90625 C 1544.6875 404.828125 1550.042969 421.277344 1550.042969 437.730469 C 1550.042969 440.40625 1550.042969 442.703125 1549.660156 445.382812 C 1548.511719 454.179688 1545.835938 462.597656 1541.628906 470.632812 C 1532.0625 488.230469 1515.230469 503.535156 1491.898438 514.628906 C 1488.453125 516.542969 1484.628906 518.070312 1480.804688 519.601562 C 1452.113281 531.078125 1418.066406 535.671875 1382.492188 532.992188 C 1377.898438 532.609375 1373.691406 532.226562 1369.101562 531.84375 C 1320.136719 525.722656 1277.292969 506.59375 1249.75 480.960938 C 1246.6875 477.902344 1243.628906 475.222656 1240.949219 472.160156 C 1235.210938 466.039062 1230.621094 459.535156 1226.796875 452.652344 C 1225.265625 449.972656 1224.117188 447.675781 1222.972656 445 C 1219.910156 438.113281 1217.617188 431.226562 1216.46875 423.957031 C 1216.085938 420.515625 1215.703125 417.070312 1215.703125 414.011719 C 1215.703125 411.332031 1215.703125 408.269531 1216.085938 405.59375 C 1216.085938 405.210938 1216.085938 404.445312 1216.085938 404.0625 C 1217.617188 392.96875 1221.441406 383.019531 1227.179688 373.457031 C 1231.003906 367.335938 1235.976562 361.597656 1241.714844 355.859375 C 1257.015625 341.320312 1278.441406 330.226562 1303.304688 323.339844 C 1330.464844 315.6875 1362.597656 313.007812 1395.878906 317.21875 Z M 1546.21875 480.195312 L 1545.835938 479.046875 C 1546.21875 478.285156 1546.601562 477.519531 1546.984375 477.136719 C 1546.601562 477.902344 1546.601562 479.046875 1546.21875 480.195312 Z M 1350.355469 1023.839844 C 1350.355469 1024.222656 1350.738281 1024.988281 1350.738281 1025.371094 C 1350.738281 1028.050781 1351.121094 1030.726562 1351.121094 1033.40625 C 1351.886719 1042.585938 1353.800781 1052.535156 1356.476562 1063.246094 L 1259.695312 1113.363281 L 1154.113281 1168.074219 L 944.101562 1276.726562 C 933.007812 1282.464844 919.234375 1278.253906 913.496094 1266.777344 L 611.289062 682.582031 C 608.613281 677.222656 607.847656 671.101562 609.761719 664.980469 C 611.671875 659.242188 615.5 654.269531 620.855469 651.589844 L 664.464844 629.019531 L 1073.78125 417.453125 C 1079.136719 414.773438 1085.257812 414.011719 1091.378906 415.921875 C 1097.117188 417.835938 1102.089844 421.660156 1104.765625 427.019531 L 1373.308594 946.558594 C 1354.183594 971.046875 1345.765625 997.824219 1350.355469 1023.839844 Z M 1210.730469 434.667969 C 1216.085938 452.652344 1227.179688 469.867188 1243.246094 485.167969 C 1245.925781 487.464844 1248.21875 489.761719 1251.28125 492.054688 C 1253.574219 493.96875 1255.871094 495.882812 1258.546875 497.792969 C 1286.855469 518.835938 1325.109375 534.140625 1368.335938 539.496094 C 1373.308594 540.261719 1377.898438 540.644531 1382.875 541.027344 L 1383.253906 578.136719 C 1376.753906 577.753906 1370.25 577.371094 1363.746094 576.605469 C 1335.4375 573.164062 1309.425781 565.128906 1287.238281 553.652344 C 1285.324219 552.503906 1283.414062 551.738281 1281.5 550.589844 C 1279.585938 549.441406 1277.292969 548.296875 1275.378906 547.148438 C 1234.832031 522.664062 1209.582031 486.699219 1210.347656 448.058594 C 1209.964844 443.46875 1210.347656 438.878906 1210.730469 434.667969 Z M 1706.882812 995.148438 C 1707.265625 994 1707.265625 992.851562 1707.648438 992.085938 C 1707.648438 993.617188 1708.03125 995.148438 1708.03125 996.679688 Z M 1582.558594 640.113281 C 1583.324219 638.203125 1584.472656 636.289062 1585.238281 634.757812 C 1585.621094 634.375 1585.621094 633.992188 1586 633.226562 C 1586 633.992188 1586 634.375 1586 635.140625 C 1583.707031 676.078125 1613.542969 725.046875 1664.039062 758.332031 C 1666.71875 760.242188 1669.394531 761.773438 1672.457031 763.6875 C 1675.898438 765.601562 1679.339844 767.894531 1683.167969 769.425781 L 1671.308594 796.972656 C 1666.71875 794.675781 1661.746094 792 1657.152344 789.320312 C 1651.796875 785.875 1646.441406 782.433594 1641.46875 778.992188 C 1587.914062 740.351562 1562.667969 682.964844 1582.558594 640.113281 Z M 1642.234375 578.519531 C 1676.664062 568.570312 1724.480469 576.222656 1768.089844 602.238281 C 1800.605469 621.367188 1826.238281 647.765625 1840.390625 676.460938 C 1842.304688 680.667969 1844.214844 684.875 1845.746094 689.085938 C 1847.277344 693.292969 1848.425781 697.5 1849.570312 701.710938 C 1853.015625 717.777344 1851.867188 732.699219 1846.128906 745.707031 C 1845.363281 747.617188 1844.214844 749.53125 1843.070312 751.445312 C 1839.242188 757.566406 1834.652344 762.921875 1828.914062 767.511719 C 1815.90625 777.84375 1797.546875 783.964844 1776.125 784.730469 C 1747.433594 785.875 1716.066406 777.84375 1686.226562 762.15625 C 1682.785156 760.242188 1679.722656 758.714844 1676.664062 756.800781 C 1674.367188 755.269531 1671.691406 753.738281 1669.394531 752.210938 C 1623.492188 722.367188 1595.183594 679.902344 1593.652344 643.175781 C 1593.269531 630.933594 1595.566406 619.453125 1601.304688 609.125 C 1601.6875 608.742188 1601.6875 608.359375 1602.070312 607.976562 C 1607.425781 598.796875 1615.457031 591.527344 1624.636719 586.171875 C 1629.609375 583.109375 1635.730469 580.433594 1642.234375 578.519531 Z M 1688.523438 736.523438 C 1690.816406 738.054688 1693.113281 739.203125 1695.40625 740.351562 C 1718.359375 752.59375 1742.078125 758.714844 1763.117188 758.714844 C 1787.984375 758.714844 1809.023438 749.914062 1818.96875 732.699219 C 1823.558594 725.046875 1825.472656 716.628906 1825.472656 707.832031 L 1825.089844 701.710938 C 1824.324219 692.527344 1820.882812 682.582031 1816.289062 673.015625 C 1815.144531 670.71875 1813.613281 668.042969 1812.082031 665.746094 C 1810.550781 663.070312 1809.023438 660.773438 1807.109375 658.09375 C 1795.632812 642.410156 1779.566406 627.488281 1760.058594 615.628906 C 1739.402344 603.386719 1717.214844 595.734375 1696.171875 593.820312 C 1693.113281 593.441406 1689.671875 593.441406 1686.609375 593.441406 C 1685.460938 593.441406 1684.695312 593.441406 1683.550781 593.441406 C 1681.636719 593.441406 1679.722656 593.441406 1677.8125 593.820312 C 1655.625 595.351562 1638.792969 604.535156 1629.613281 619.453125 C 1620.046875 635.90625 1620.8125 656.949219 1632.289062 679.136719 C 1643.382812 701.328125 1663.273438 721.605469 1688.523438 736.523438 Z M 1683.550781 601.472656 C 1684.316406 601.472656 1684.695312 601.472656 1685.460938 601.472656 C 1688.140625 601.472656 1690.816406 601.472656 1693.878906 601.855469 C 1697.320312 602.238281 1700.765625 602.621094 1704.207031 603.003906 C 1708.414062 603.769531 1712.238281 604.535156 1716.449219 605.683594 C 1729.835938 609.125 1743.226562 614.863281 1756.230469 622.515625 C 1768.472656 629.785156 1779.566406 638.203125 1788.367188 647.382812 C 1791.042969 650.445312 1793.722656 653.121094 1796.398438 656.183594 C 1797.929688 658.09375 1799.460938 660.007812 1800.988281 661.921875 C 1801.371094 662.6875 1802.136719 663.070312 1802.519531 663.835938 C 1818.585938 686.40625 1823.175781 710.507812 1812.847656 728.105469 C 1796.015625 756.417969 1745.902344 757.949219 1698.851562 732.316406 C 1696.9375 731.167969 1694.644531 730.019531 1692.730469 728.871094 C 1669.011719 714.71875 1649.886719 695.589844 1639.175781 675.3125 C 1628.847656 655.417969 1627.699219 637.054688 1636.113281 622.898438 C 1644.148438 609.890625 1660.980469 602.238281 1683.550781 601.472656 Z M 1494.957031 907.15625 C 1487.6875 909.066406 1480.421875 911.363281 1473.917969 914.039062 C 1472.769531 914.421875 1471.621094 914.804688 1470.476562 915.570312 C 1469.328125 915.953125 1468.179688 916.71875 1467.03125 917.101562 C 1455.9375 922.074219 1445.992188 927.8125 1436.8125 934.316406 C 1434.132812 936.230469 1431.839844 938.144531 1429.160156 940.054688 C 1426.863281 941.96875 1424.570312 943.882812 1422.273438 946.175781 C 1411.5625 956.125 1403.53125 967.601562 1398.941406 979.078125 C 1398.175781 980.609375 1397.792969 982.523438 1397.027344 984.054688 C 1396.644531 985.964844 1395.878906 987.878906 1395.496094 989.410156 C 1395.113281 991.320312 1394.730469 993.234375 1394.730469 994.765625 C 1393.964844 1000.121094 1394.347656 1005.476562 1395.113281 1010.832031 C 1396.644531 1019.25 1400.085938 1027.285156 1405.441406 1034.554688 C 1406.207031 1035.699219 1406.972656 1036.847656 1408.121094 1037.613281 C 1408.886719 1038.761719 1409.652344 1039.527344 1410.796875 1040.675781 C 1430.308594 1061.714844 1465.882812 1074.339844 1506.816406 1074.339844 C 1518.675781 1074.339844 1530.917969 1073.195312 1543.539062 1070.898438 C 1544.6875 1070.515625 1546.21875 1070.515625 1547.367188 1070.132812 C 1548.511719 1069.75 1550.042969 1069.75 1551.191406 1069.367188 C 1551.957031 1069.367188 1552.339844 1068.984375 1553.105469 1068.984375 C 1621.578125 1053.683594 1669.777344 1007.390625 1661.746094 963.011719 C 1657.535156 938.910156 1637.261719 919.777344 1608.1875 909.066406 C 1605.511719 907.917969 1602.832031 907.152344 1600.15625 906.390625 C 1597.476562 905.625 1594.417969 904.859375 1591.359375 904.09375 C 1568.40625 898.738281 1541.246094 897.589844 1513.320312 902.945312 C 1507.199219 904.09375 1501.078125 905.625 1494.957031 907.15625 Z M 1571.082031 908.300781 C 1574.90625 908.683594 1578.351562 909.449219 1582.175781 909.832031 C 1584.855469 910.214844 1587.148438 910.980469 1589.445312 911.363281 C 1590.210938 911.363281 1590.976562 911.746094 1591.738281 911.746094 C 1625.402344 920.160156 1649.503906 938.910156 1654.09375 964.160156 C 1661.363281 1004.710938 1615.457031 1047.179688 1550.808594 1061.332031 C 1550.425781 1061.332031 1549.660156 1061.714844 1549.277344 1061.714844 C 1548.128906 1062.097656 1546.601562 1062.097656 1545.453125 1062.480469 C 1544.304688 1062.863281 1543.539062 1062.863281 1542.390625 1063.246094 C 1542.007812 1063.246094 1542.007812 1063.246094 1541.628906 1063.246094 C 1487.304688 1072.8125 1437.578125 1059.804688 1415.007812 1033.40625 C 1413.859375 1032.257812 1413.09375 1031.109375 1412.328125 1029.960938 C 1411.179688 1028.433594 1410.414062 1027.285156 1409.652344 1025.753906 C 1406.589844 1020.398438 1404.296875 1015.042969 1403.148438 1008.921875 C 1402.765625 1006.242188 1402.382812 1003.5625 1402.382812 1000.886719 C 1402.382812 998.589844 1402.382812 995.914062 1402.765625 993.617188 C 1403.148438 991.703125 1403.53125 989.792969 1403.914062 987.496094 C 1403.914062 987.113281 1404.296875 986.347656 1404.296875 985.964844 C 1408.886719 969.515625 1421.507812 953.828125 1439.105469 940.820312 C 1441.785156 938.910156 1444.84375 936.996094 1447.90625 935.082031 C 1451.347656 933.167969 1454.40625 931.257812 1458.234375 929.34375 C 1462.058594 927.429688 1466.265625 925.519531 1470.09375 923.605469 C 1471.238281 923.222656 1472.386719 922.457031 1473.535156 922.074219 C 1474.683594 921.691406 1475.832031 920.925781 1476.976562 920.542969 C 1478.125 920.164062 1479.273438 919.78125 1480.421875 919.398438 C 1491.132812 915.570312 1502.609375 912.128906 1514.847656 910.214844 C 1527.089844 907.917969 1539.332031 907.15625 1550.808594 907.15625 C 1557.695312 907.15625 1564.578125 907.535156 1571.082031 908.300781 Z M 1102.472656 767.894531 C 1093.289062 765.601562 1083.726562 764.453125 1073.398438 764.070312 C 1046.238281 763.304688 1019.84375 770.574219 994.210938 777.460938 C 988.472656 778.992188 982.738281 780.519531 977 782.050781 C 967.050781 784.730469 957.105469 787.023438 946.777344 788.171875 C 941.804688 784.730469 937.980469 779.371094 935.300781 773.25 C 929.945312 762.15625 932.242188 748.765625 941.039062 739.96875 C 952.132812 727.726562 966.289062 718.925781 981.589844 713.953125 C 994.210938 715.101562 1006.070312 721.222656 1018.3125 732.699219 L 1020.992188 735.375 C 1020.992188 735.375 1020.992188 735.757812 1020.992188 735.757812 L 1049.679688 730.402344 C 1049.679688 730.402344 1087.933594 690.996094 1107.445312 671.101562 C 1080.285156 645.851562 1050.828125 634.375 1019.84375 633.609375 C 997.273438 627.871094 973.554688 628.636719 947.542969 635.140625 L 931.476562 604.152344 L 903.933594 598.796875 L 852.671875 625.578125 L 875.242188 668.808594 C 873.710938 669.957031 872.183594 671.484375 870.652344 672.632812 C 865.679688 676.84375 861.089844 680.667969 856.5 684.875 C 828.957031 711.65625 810.59375 752.976562 818.246094 797.355469 C 820.921875 812.65625 826.277344 827.960938 835.839844 843.261719 C 853.4375 871.957031 877.15625 888.789062 905.847656 894.148438 C 911.203125 894.910156 916.558594 895.675781 921.914062 896.058594 C 938.363281 896.441406 954.046875 894.527344 970.113281 891.851562 C 993.066406 890.320312 1015.253906 884.964844 1037.441406 879.609375 C 1048.914062 876.929688 1060.390625 874.253906 1072.25 871.957031 C 1077.222656 872.722656 1081.433594 875.019531 1085.257812 878.078125 C 1091.761719 883.433594 1095.203125 891.085938 1095.585938 899.503906 C 1095.96875 909.449219 1092.144531 919.78125 1084.109375 927.8125 C 1071.484375 940.820312 1055.800781 950.003906 1038.585938 955.359375 C 1032.085938 957.273438 1025.964844 958.800781 1020.226562 959.183594 C 1011.425781 955.742188 1003.394531 950.386719 995.742188 943.117188 C 994.210938 941.585938 991.152344 939.289062 991.152344 939.289062 L 962.460938 934.699219 L 961.695312 934.316406 L 950.601562 943.5 L 889.015625 995.53125 L 892.074219 998.589844 C 893.988281 1000.503906 895.519531 1002.035156 897.429688 1003.945312 C 900.875 1007.390625 904.316406 1010.832031 908.140625 1013.894531 C 942.570312 1043.734375 983.882812 1053.683594 1031.320312 1043.734375 C 1034.378906 1043.734375 1037.441406 1043.351562 1040.882812 1042.96875 C 1049.296875 1042.203125 1058.097656 1040.675781 1066.511719 1038.378906 L 1091.378906 1086.203125 L 1092.144531 1085.820312 L 1121.980469 1081.226562 L 1166.355469 1058.273438 L 1139.960938 1007.007812 C 1149.90625 998.972656 1159.851562 991.703125 1169.035156 983.671875 C 1221.058594 938.527344 1224.5 869.277344 1199.253906 826.046875 C 1177.832031 787.789062 1144.933594 768.660156 1102.472656 767.894531 Z M 1065.363281 1026.136719 C 1062.304688 1026.902344 1059.246094 1028.050781 1056.183594 1029.195312 C 1049.679688 1031.109375 1043.558594 1033.023438 1037.441406 1034.554688 C 1036.292969 1034.9375 1035.144531 1034.9375 1033.996094 1035.316406 C 1019.84375 1038.761719 1006.835938 1040.292969 994.210938 1039.910156 C 963.992188 1039.527344 937.214844 1028.8125 913.496094 1008.15625 C 910.054688 1005.09375 906.609375 1002.035156 903.167969 998.589844 C 902.402344 997.824219 901.636719 997.058594 900.871094 996.296875 L 953.664062 951.535156 L 955.957031 949.621094 L 962.078125 944.648438 C 962.84375 945.03125 963.609375 945.792969 963.992188 946.175781 C 985.03125 966.453125 1010.28125 972.574219 1038.96875 963.777344 C 1039.734375 963.394531 1040.5 963.394531 1041.265625 963.011719 C 1059.628906 957.273438 1076.457031 947.324219 1090.230469 933.550781 C 1099.410156 923.605469 1104.382812 911.363281 1103.621094 899.503906 C 1103.238281 889.171875 1098.261719 879.609375 1090.613281 872.722656 C 1089.464844 871.574219 1087.933594 870.425781 1086.40625 869.660156 C 1079.519531 865.070312 1071.484375 863.539062 1063.453125 864.6875 C 1045.472656 867.75 1026.730469 871.574219 1007.601562 876.164062 C 981.207031 882.667969 954.429688 889.171875 926.886719 888.789062 C 925.738281 888.789062 924.207031 888.789062 923.058594 888.789062 C 913.878906 888.40625 905.464844 887.261719 897.429688 884.582031 C 875.625 877.695312 857.261719 862.773438 843.109375 839.820312 C 836.988281 829.875 832.398438 819.925781 829.71875 809.597656 C 816.332031 763.6875 834.3125 718.925781 862.617188 690.996094 C 866.828125 686.789062 871.417969 682.964844 876.390625 679.136719 C 878.6875 677.222656 880.980469 675.3125 883.660156 673.015625 L 885.953125 671.101562 L 864.148438 629.019531 L 900.492188 610.273438 L 902.019531 609.507812 L 923.824219 651.589844 L 926.886719 650.445312 C 935.683594 647 944.101562 644.324219 952.132812 642.410156 C 963.226562 639.730469 973.9375 638.203125 984.265625 637.820312 C 1017.164062 636.671875 1047.003906 647.765625 1073.78125 671.484375 L 1021.375 725.429688 C 1017.164062 721.601562 1012.957031 718.542969 1008.367188 715.863281 C 1005.304688 713.953125 1002.246094 712.421875 998.804688 711.273438 C 990.003906 707.832031 981.207031 706.300781 971.644531 707.066406 C 947.542969 709.359375 925.355469 720.457031 909.671875 738.054688 C 899.34375 748 896.664062 762.921875 903.167969 775.546875 C 910.054688 791.234375 922.296875 799.265625 937.597656 798.121094 C 946.011719 797.355469 954.429688 795.824219 962.84375 794.292969 C 968.199219 793.144531 973.9375 791.996094 979.292969 790.46875 C 985.03125 788.9375 990.769531 787.40625 996.507812 785.875 C 1017.929688 780.136719 1039.734375 774.015625 1062.304688 772.867188 C 1066.128906 772.488281 1069.957031 772.488281 1073.398438 772.488281 C 1115.09375 773.25 1146.847656 792.378906 1167.886719 828.726562 C 1191.601562 869.660156 1189.308594 937.378906 1138.429688 981.375 C 1132.308594 986.730469 1125.804688 991.703125 1118.921875 997.058594 C 1115.859375 999.355469 1112.417969 1002.035156 1109.355469 1004.328125 L 1107.0625 1006.242188 L 1133.074219 1056.742188 L 1095.203125 1076.253906 L 1094.054688 1074.339844 L 1074.546875 1036.847656 L 1068.808594 1025.753906 Z M 1065.363281 1026.136719 " fill-opacity="1" fill-rule="nonzero"/></g></svg>